<svg width="163" height="171" viewBox="0 0 163 171" fill="none" xmlns="http://www.w3.org/2000/svg">
<path d="M61.0708 33.3957C59.7225 33.4274 58.644 34.745 58.6916 36.3484C58.7233 37.9517 59.8653 39.2058 61.2294 39.174C62.5934 39.1423 63.6561 37.8088 63.6085 36.2214C63.5768 34.6339 62.4348 33.3639 61.0708 33.3957ZM47.446 53.7787C47.446 53.7787 48.4294 58.9538 52.1409 59.0649C52.2995 59.0649 55.0276 59.0014 56.5503 54.0168L47.446 53.7787ZM46.3198 33.5386C44.9558 33.5862 43.8931 34.8879 43.9407 36.4754C43.9724 38.0787 45.1144 39.3328 46.4785 39.301C47.8267 39.2693 48.8894 37.9517 48.8576 36.3642C48.8101 34.7768 47.6839 33.4909 46.3198 33.5386ZM21.735 35.4594C22.5756 34.9514 23.6383 34.6974 24.9231 34.7768C25.0817 34.7768 25.2403 34.7926 25.3989 34.8085C25.3989 34.8085 28.1429 35.38 29.2691 37.5072L31.4896 30.1414C35.3756 30.9827 39.9278 31.7447 43.6869 31.1574C43.6869 31.1574 46.5895 30.7764 49.4762 28.3158C49.4762 28.3158 57.1213 22.1406 67.2725 21.5215L67.2883 21.8866C68.2242 23.9503 68.8269 26.8395 69.1758 30.0144C69.5565 33.5386 69.6517 37.4278 69.6041 40.9044C69.4613 50.4767 65.956 62.351 57.4385 65.7481L57.6447 71.2883L59.4846 72.4313L59.675 72.4472C59.5005 76.8286 55.7414 80.5909 55.7414 80.5909C55.1387 81.3211 54.8532 82.2894 54.7104 83.1467C54.5518 84.1944 54.6152 85.0516 54.6152 85.0516C54.6152 85.0516 54.647 85.4326 54.6787 86.0359H54.5042L49.2542 86.1946H49.0956C49.0638 85.5437 49.0797 85.131 49.0797 85.131C48.9052 84.2896 48.5245 83.5118 48.0487 82.8768C47.1288 81.5751 45.9392 80.7972 45.9392 80.7972C41.2918 78.5113 39.0078 74.495 38.072 72.4154L38.5003 72.2884L39.7692 71.2883V65.3195C29.1898 59.938 26.7154 50.0005 26.7154 50.0005C23.1625 50.0005 19.7682 48.5718 19.0703 42.3807C18.7372 39.5233 19.5461 36.7135 21.735 35.4594Z" fill="#FFD4B9"/>
<path d="M161.25 82.7335H135.063V82.5747L129.607 76.8916H153.446L161.25 82.7335Z" fill="#FFD89E"/>
<path d="M135.063 82.5747V82.7335V105.767H119.012V82.7335V82.4318L112.937 77.352V76.8916H129.607L135.063 82.5747Z" fill="url(#paint0_linear_92_845)"/>
<path d="M119.012 82.7335H92.9835L84.2598 77.2091V76.8916H112.937V77.352L119.012 82.4318V82.7335Z" fill="#FFD89E"/>
<path d="M100.486 145.487C100.486 145.487 103.5 144.772 102.849 141.613C102.421 139.629 100.486 139.073 100.486 139.073H92.6663V83.6551L92.9835 82.7344H119.012V105.768H135.063V82.7344H161.25V147.55H114.682L114.571 147.693C114.269 147.376 113.841 147.074 113.238 146.915L99.7246 145.899L99.6928 145.582L100.486 145.487Z" fill="#FFD89E"/>
<path d="M102.849 141.613C103.5 144.772 100.486 145.487 100.486 145.487L99.6928 145.582L99.7246 145.899L113.238 146.915C113.841 147.074 114.269 147.376 114.571 147.693C115.094 148.249 115.237 148.852 115.237 148.852C115.522 153.741 110.685 153.741 110.685 153.741C106.434 160.774 81.3731 156.996 81.3731 156.996L78.074 157.821L78.0423 157.837L75.1238 146.36L78.6292 145.28C78.6292 145.28 81.0559 141.502 83.8634 139.788C84.3868 139.47 84.9102 139.216 85.4495 139.073H100.486C100.486 139.073 102.421 139.629 102.849 141.613Z" fill="#FFD4B9"/>
<path d="M92.6663 138.025V139.072H85.4495C84.9102 139.215 84.3868 139.469 83.8633 139.787L83.6254 139.406V76.8916H84.2599V77.2091L92.9835 82.7335L92.6663 83.6542V138.025Z" fill="#FFD89E"/>
<path d="M76.9319 22.1091L76.8526 22.2996L70.413 19.3945L76.9319 22.1091Z" fill="#61C1BE"/>
<path d="M79.7711 26.6184C79.7711 26.6184 80.0407 30.6346 69.5565 29.9838L69.1758 30.0155C68.8269 26.8406 68.2241 23.9514 67.2883 21.8877L67.2725 21.5226C68.2241 21.475 69.1917 21.4591 70.1909 21.5068C70.1909 21.5068 73.9976 21.221 76.8209 22.3799C78.5656 23.0942 79.9456 24.3642 79.7711 26.6184Z" fill="#61C1BE"/>
<path d="M63.6086 36.2218C63.6562 37.8092 62.5935 39.1427 61.2294 39.1744C59.8654 39.2062 58.7234 37.9521 58.6916 36.3488C58.6441 34.7454 59.7226 33.4278 61.0708 33.3961C62.4349 33.3643 63.5769 34.6343 63.6086 36.2218Z" fill="#3E3A39"/>
<path d="M55.7414 80.5913C55.7414 80.5913 59.5005 76.829 59.6749 72.4476C59.7067 71.8603 59.6591 71.2729 59.5481 70.6855C59.5481 70.6855 63.1803 71.9555 67.1773 76.1623C67.2407 76.2417 67.32 76.321 67.3993 76.4004C67.3993 76.4004 65.0836 84.2901 61.2452 88.3381C61.2452 88.3381 59.0088 83.5122 55.2179 83.2424L54.7104 83.1471C54.8531 82.2899 55.1386 81.3215 55.7414 80.5913Z" fill="#61C1BE"/>
<path d="M52.1409 59.0655C48.4294 58.9544 47.446 53.7793 47.446 53.7793L56.5503 54.0174C55.0276 59.002 52.2995 59.0655 52.1409 59.0655Z" fill="white"/>
<path d="M52.4899 93.8941C49.6666 94.0528 49.1749 88.5761 49.0956 86.1949H49.2542L54.5042 86.0361H54.6787C54.8373 88.3062 54.9166 93.7512 52.4899 93.8941Z" fill="white"/>
<path d="M48.8577 36.3641C48.8894 37.9515 47.8267 39.2691 46.4785 39.3009C45.1145 39.3326 43.9725 38.0785 43.9407 36.4752C43.8932 34.8877 44.9559 33.586 46.3199 33.5384C47.684 33.4908 48.8101 34.7766 48.8577 36.3641Z" fill="#3E3A39"/>
<path d="M30.9979 76.6064C34.6301 72.9394 37.5644 71.082 37.5644 71.082C37.5644 71.082 37.723 71.6059 38.072 72.4155C39.0078 74.4951 41.2918 78.5113 45.9391 80.7973C45.9391 80.7973 47.1287 81.5751 48.0487 82.8769L47.9218 82.9721C43.1317 83.8135 41.3394 89.0362 41.3394 89.0362C32.4413 82.9721 30.7917 76.8286 30.7917 76.8286C30.871 76.7493 30.9344 76.6858 30.9979 76.6064Z" fill="#61C1BE"/>
<path d="M43.6869 31.1577C39.9278 31.745 35.3756 30.983 31.4896 30.1417C31.0455 30.0464 30.6014 29.9512 30.1732 29.8559C36.8031 25.7127 42.5132 22.0774 42.5132 22.0774C54.0443 13.1876 63.6879 16.5848 63.6879 16.5848L70.413 19.3946L76.8526 22.2996V22.3155L76.8209 22.379C73.9976 21.2202 70.1909 21.5059 70.1909 21.5059C69.1917 21.4583 68.2242 21.4742 67.2725 21.5218C57.1213 22.1409 49.4762 28.3161 49.4762 28.3161C46.5895 30.7767 43.6869 31.1577 43.6869 31.1577Z" fill="#61C1BE"/>
<path d="M40.4354 168.902C40.4354 168.902 31.2517 170.839 26.2554 166.807C13.1065 156.187 1.48026 108.198 1.48026 108.198C0.0527527 99.0701 5.73106 91.6884 5.73106 91.6884C14.5182 82.2431 30.9662 76.5758 30.9662 76.5758L30.9979 76.6076C30.9345 76.6869 30.8711 76.7505 30.7917 76.8298C30.7917 76.8298 32.4413 82.9733 41.3394 89.0374C41.3394 89.0374 43.1318 83.8146 47.9218 82.9733L48.0487 82.878C48.5246 83.513 48.9052 84.2909 49.0797 85.1322C49.0797 85.1322 49.0638 85.545 49.0956 86.1958C49.1749 88.577 49.6666 94.0538 52.4899 93.895C54.9166 93.7521 54.8373 88.3072 54.6787 86.0371C54.647 85.4339 54.6153 85.0529 54.6153 85.0529C54.6153 85.0529 54.5518 84.1956 54.7104 83.1479L55.218 83.2432C59.0088 83.513 61.2452 88.3389 61.2452 88.3389C65.0836 84.2909 67.3994 76.4012 67.3994 76.4012C67.3201 76.3218 67.2408 76.2425 67.1773 76.1631C68.4145 76.56 76.2658 79.084 83.6254 82.2589V139.407L83.8633 139.788C81.0559 141.503 78.6291 145.281 78.6291 145.281L75.1238 146.361L78.0422 157.838L78.4546 159.457L68.9855 161.775L40.4354 168.902Z" fill="#61C1BE"/>
<path d="M31.4896 30.1412L29.269 37.507C28.1429 35.3798 25.3989 34.8083 25.3989 34.8083C25.2403 34.7925 25.0816 34.7766 24.923 34.7766V34.7607C26.6202 32.3002 29.269 30.4111 29.269 30.4111C29.5704 30.2206 29.8717 30.0301 30.1731 29.8555C30.6013 29.9507 31.0455 30.046 31.4896 30.1412Z" fill="#F6AD3C"/>
<path d="M24.9232 34.7771C23.6384 34.6978 22.5757 34.9518 21.7351 35.4598C20.6089 29.5068 20.5296 25.2365 20.5296 25.2365C20.5296 11.9971 32.0131 1.25 46.1772 1.25C58.1206 1.25 67.7484 8.91743 70.4765 19.2359L70.4131 19.3947L63.6879 16.5849C63.6879 16.5849 54.0443 13.1877 42.5132 22.0775C42.5132 22.0775 36.8032 25.7127 30.1732 29.856C29.8718 30.0306 29.5705 30.2211 29.2691 30.4116C29.2691 30.4116 26.6203 32.3007 24.9232 34.7613V34.7771Z" fill="#61C1BE"/>
<path d="M31.5372 29.9824L31.4896 30.1412L29.2691 37.507C28.1429 35.3798 25.3989 34.8083 25.3989 34.8083C25.2403 34.7924 25.0817 34.7765 24.9231 34.7765C23.6383 34.6972 22.5756 34.9512 21.735 35.4592C19.5461 36.7133 18.7372 39.5231 19.0703 42.3805C19.7682 48.5716 23.1625 50.0003 26.7154 50.0003C26.7154 50.0003 29.1898 59.9378 39.7692 65.3193V71.2881L38.5003 72.2882" stroke="#3E3A39" stroke-width="2.5" stroke-linecap="round" stroke-linejoin="round"/>
<path d="M59.4846 72.4314L57.6447 71.2885L57.4385 65.7482C65.9559 62.3511 69.4613 50.4769 69.604 40.9045C69.6516 37.4279 69.5564 33.5387 69.1758 30.0145C68.8268 26.8396 68.2241 23.9504 67.2883 21.8867" stroke="#3E3A39" stroke-width="2.5" stroke-linecap="round" stroke-linejoin="round"/>
<path d="M92.5393 146.407L99.6927 145.582L100.486 145.487C100.486 145.487 103.499 144.772 102.849 141.613C102.421 139.629 100.486 139.073 100.486 139.073H85.4494C84.9101 139.216 84.3867 139.47 83.8633 139.788C81.0558 141.502 78.6291 145.28 78.6291 145.28L75.1238 146.36L74.9493 146.407" stroke="#3E3A39" stroke-width="2.5" stroke-linecap="round" stroke-linejoin="round"/>
<path d="M78.0739 157.821L81.373 156.996C81.373 156.996 106.434 160.774 110.685 153.741C110.685 153.741 115.522 153.741 115.237 148.852C115.237 148.852 115.094 148.249 114.571 147.693C114.269 147.376 113.841 147.074 113.238 146.915L99.7244 145.899" stroke="#3E3A39" stroke-width="2.5" stroke-linecap="round" stroke-linejoin="round"/>
<path d="M55.2179 83.2424C59.0088 83.5122 61.2452 88.3381 61.2452 88.3381C65.0836 84.2901 67.3993 76.4004 67.3993 76.4004C67.32 76.321 67.2407 76.2417 67.1773 76.1623C63.1802 71.9555 59.548 70.6855 59.548 70.6855C59.6591 71.2729 59.7066 71.8603 59.6749 72.4476C59.5005 76.829 55.7413 80.5913 55.7413 80.5913C55.1386 81.3215 54.8531 82.2899 54.7104 83.1471C54.5518 84.1948 54.6152 85.0521 54.6152 85.0521C54.6152 85.0521 54.6469 85.4331 54.6786 86.0363C54.8373 88.3064 54.9166 93.7513 52.4898 93.8942C49.6665 94.053 49.1748 88.5762 49.0955 86.195C49.0638 85.5442 49.0796 85.1314 49.0796 85.1314C48.9052 84.2901 48.5245 83.5122 48.0487 82.8772C47.1287 81.5755 45.9391 80.7977 45.9391 80.7977C41.2918 78.5117 39.0078 74.4955 38.072 72.4159C37.723 71.6063 37.5644 71.0824 37.5644 71.0824C37.5644 71.0824 34.6301 72.9397 30.9979 76.6068C30.9344 76.6861 30.871 76.7496 30.7917 76.829C30.7917 76.829 32.4413 82.9725 41.3394 89.0366C41.3394 89.0366 43.1317 83.8138 47.9218 82.9725" stroke="#3E3A39" stroke-width="2.5" stroke-linecap="round" stroke-linejoin="round"/>
<path d="M30.9662 76.5752C30.9662 76.5752 14.5182 82.2424 5.73106 91.6878C5.73106 91.6878 0.0527528 99.0695 1.48026 108.197C1.48026 108.197 13.1065 156.186 26.2554 166.806C31.2517 170.839 40.4354 168.902 40.4354 168.902L68.9855 161.774L78.4546 159.456L78.0422 157.837L75.1238 146.36L74.6638 144.566L65.9719 146.027L38.3575 147.297C38.3575 147.297 31.5372 137.851 25.0183 114.912" stroke="#3E3A39" stroke-width="2.5" stroke-linecap="round" stroke-linejoin="round"/>
<path d="M67.0029 76.1143C67.0029 76.1143 67.0663 76.1301 67.1773 76.1619C68.4145 76.5587 76.2658 79.0828 83.6254 82.2577" stroke="#3E3A39" stroke-width="2.5" stroke-linecap="round" stroke-linejoin="round"/>
<path d="M66.3367 150.789L68.4303 157.917" stroke="#3E3A39" stroke-width="2.5" stroke-linecap="round" stroke-linejoin="round"/>
<path d="M30.1256 29.8409C30.1415 29.8409 30.1573 29.8409 30.1732 29.8568C30.6014 29.952 31.0456 30.0473 31.4897 30.1425C35.3757 30.9839 39.9278 31.7459 43.6869 31.1585C43.6869 31.1585 46.5895 30.7775 49.4763 28.317C49.4763 28.317 57.1214 22.1417 67.2725 21.5226C68.2242 21.475 69.1917 21.4591 70.191 21.5068C70.191 21.5068 73.9977 21.221 76.821 22.3799C78.5657 23.0942 79.9456 24.3642 79.7711 26.6184C79.7711 26.6184 80.0408 30.6346 69.5565 29.9838" stroke="#3E3A39" stroke-width="2.5" stroke-linecap="round" stroke-linejoin="round"/>
<path d="M70.4765 19.2359C67.7484 8.91743 58.1206 1.25 46.1772 1.25C32.0131 1.25 20.5296 11.9971 20.5296 25.2365C20.5296 25.2365 20.6089 29.5068 21.7351 35.4598C21.7351 35.4756 21.7509 35.5074 21.7509 35.5233" stroke="#3E3A39" stroke-width="2.5" stroke-linecap="round" stroke-linejoin="round"/>
<path d="M24.923 34.7612C26.6202 32.3006 29.269 30.4116 29.269 30.4116C29.5704 30.2211 29.8717 30.0306 30.1731 29.8559C36.8031 25.7127 42.5131 22.0774 42.5131 22.0774C54.0442 13.1876 63.6878 16.5848 63.6878 16.5848L70.4129 19.3946L76.8526 22.2996V22.3155L77.5346 22.6171" stroke="#3E3A39" stroke-width="2.5" stroke-linecap="round" stroke-linejoin="round"/>
<path d="M83.6254 139.406V82.2572V76.8916H84.2599H112.937H129.607H153.446L161.25 82.7335V147.549H114.682" stroke="#3E3A39" stroke-width="2.5" stroke-linecap="round" stroke-linejoin="round"/>
<path d="M119.012 82.7343H92.9835L84.2598 77.21" stroke="#3E3A39" stroke-width="2.5" stroke-linecap="round" stroke-linejoin="round"/>
<path d="M161.25 82.7344H135.063" stroke="#3E3A39" stroke-width="2.5" stroke-linecap="round" stroke-linejoin="round"/>
<path d="M92.6663 138.026V83.6553" stroke="#3E3A39" stroke-width="2.5" stroke-linecap="round" stroke-linejoin="round"/>
<path d="M112.937 77.352L119.012 82.4318V82.7335V105.767H135.063V82.7335V82.5747L129.607 76.8916" stroke="#3E3A39" stroke-width="2.5" stroke-linecap="round" stroke-linejoin="round"/>
<path d="M56.5503 54.0174L47.446 53.7793C47.446 53.7793 48.4294 58.9544 52.1409 59.0655C52.2995 59.0655 55.0276 59.002 56.5503 54.0174Z" stroke="#3E3A39" stroke-width="2.5" stroke-linecap="round" stroke-linejoin="round"/>
<path d="M54.6311 41.4443C54.6311 41.4443 57.2324 41.6507 57.1689 44.8098C57.1689 44.8098 57.1055 47.0639 54.3456 47.5878" stroke="#3E3A39" stroke-width="2.5" stroke-linecap="round" stroke-linejoin="round"/>
<path d="M49.2542 86.1949L54.5042 86.0361" stroke="#3E3A39" stroke-width="2.5" stroke-linecap="round" stroke-linejoin="round"/>
<path d="M55.0752 100.021L63.672 139.962" stroke="#3E3A39" stroke-width="2.5" stroke-linecap="round" stroke-linejoin="round"/>
<path d="M58.9612 30.3802C58.9612 30.3802 61.1818 27.745 63.672 30.3802" stroke="#3E3A39" stroke-width="2.5" stroke-linecap="round" stroke-linejoin="round"/>
<path d="M47.9695 29.8555C48.3026 30.0301 48.6356 30.3 48.9846 30.6651" stroke="#3E3A39" stroke-width="2.5" stroke-linecap="round" stroke-linejoin="round"/>
<defs>
<linearGradient id="paint0_linear_92_845" x1="112.937" y1="91.3295" x2="135.063" y2="91.3295" gradientUnits="userSpaceOnUse">
<stop stop-color="#00DBDE"/>
<stop offset="1" stop-color="#FD3EFF"/>
</linearGradient>
</defs>
</svg>
