<svg width="363" height="98" viewBox="0 0 363 98" fill="none" xmlns="http://www.w3.org/2000/svg">
<path d="M70.84 9.23997L60.06 24.92C54.18 19.6 48.58 18.2 44.38 18.2C41.72 18.2 37.94 18.62 35.56 20.58C33.6 22.12 32.34 24.78 32.34 27.3C32.34 30.1 33.6 32.06 35.56 33.6C37.52 35.28 40.04 36.4 44.66 38.5L50.12 41.02C54.6 43.12 58.8 45.5 62.44 49.98C65.8 54.18 67.2 58.52 67.2 64.54C67.2 74.34 63.28 83.02 57.82 88.48C50.26 95.9 40.6 97.58 31.08 97.58C24.22 97.58 18.76 96.74 12.46 93.38C7.84 90.86 3.36 87.08 -1.16229e-06 83.44L12.04 68.04C14 70.7 17.08 73.64 19.88 75.46C22.82 77.28 26.74 78.54 30.8 78.54C34.02 78.54 38.5 77.56 41.16 75.6C43.68 73.64 45.08 70.42 45.08 66.92C45.08 63.56 43.54 61.6 42.42 60.48C41.72 59.78 39.9 58.24 35 56.28L29.54 54.04C28 53.48 20.86 50.4 16.38 45.78C11.9 41.16 10.22 35.84 10.22 29.96C10.22 20.3 14.14 13.3 18.62 8.81998C26.18 1.39997 35.84 -2.52724e-05 43.82 -2.52724e-05C51.8 -2.52724e-05 61.04 1.53998 70.84 9.23997ZM138.153 20.3H117.853L108.613 95.48H87.0527L96.2927 20.3H75.9927L78.2327 2.09997H140.393L138.153 20.3ZM199.047 2.09997L196.807 20.3H166.287L164.047 38.36H193.447L191.207 56.56H161.807L159.287 77.28H190.367L188.127 95.48H136.047L147.527 2.09997H199.047ZM213.601 2.09997H245.101C251.681 2.09997 261.761 2.37998 269.321 9.93998C273.521 14.14 276.881 20.44 276.881 29.96C276.881 40.32 273.381 49.28 267.781 54.46C263.581 58.38 255.601 62.72 240.061 62.72H227.741L223.681 95.48H202.121L213.601 2.09997ZM233.061 19.74L229.841 45.08H237.541C242.161 45.08 247.481 44.66 251.121 41.02C254.341 37.94 254.761 33.74 254.761 31.36C254.761 28.7 254.201 25.62 251.681 23.24C248.321 20.02 242.721 19.74 239.501 19.74H233.061ZM329.054 95.48L338.294 20.3H324.994L327.234 2.09997H362.094L350.614 95.48H329.054Z" fill="white"/>
</svg>
